<svg width="338" height="322" viewBox="0 0 338 322" fill="none" xmlns="http://www.w3.org/2000/svg">
1E1E1E"/>s*#1E1E1E"/>
<g id="home-page">
<g id="Group 16">
<g id="tile-card">
<g clip-path="url(#clip0_0_1)">
<rect y="222.93" width="239.456" height="269.092" rx="18" transform="rotate(-68.5884 0 222.93)" fill="url(#paint0_radial_0_1)"/>
<g id="Group 8">
<g id="Group 7">
<g id="ASCII-pattern">
<rect id="Rectangle 1" x="259.25" y="301.388" width="18.9" height="18.9" transform="rotate(-68.5884 259.25 301.388)" fill="#F69C9C" stroke="#EE7D81" stroke-width="1.8"/>
<circle id="Ellipse 1" cx="271.497" cy="296.04" r="5.4" transform="rotate(-68.5884 271.497 296.04)" fill="#EE7D81"/>
</g>
<g id="ASCII-pattern_2">
<rect id="Rectangle 1_2" x="143.622" y="256.047" width="18.9" height="18.9" transform="rotate(-68.5884 143.622 256.047)" fill="#F69C9C" stroke="#EE7D81" stroke-width="1.8"/>
<circle id="Ellipse 1_2" cx="155.868" cy="250.7" r="5.4" transform="rotate(-68.5884 155.868 250.7)" fill="#EE7D81"/>
</g>
<g id="ASCII-pattern_3">
<rect id="Rectangle 1_3" x="27.9926" y="210.706" width="18.9" height="18.9" transform="rotate(-68.5884 27.9926 210.706)" fill="#F69C9C" stroke="#EE7D81" stroke-width="1.8"/>
<circle id="Ellipse 1_3" cx="40.2408" cy="205.358" r="5.4" transform="rotate(-68.5884 40.2408 205.358)" fill="#EE7D81"/>
</g>
<g id="ASCII-pattern_4">
<rect id="Rectangle 1_4" x="297.793" y="316.502" width="18.9" height="18.9" transform="rotate(-68.5884 297.793 316.502)" fill="#F69C9C" stroke="#EE7D81" stroke-width="1.8"/>
<circle id="Ellipse 1_4" cx="310.04" cy="311.154" r="5.4" transform="rotate(-68.5884 310.04 311.154)" fill="#EE7D81"/>
</g>
<g id="ASCII-pattern_5">
<rect id="Rectangle 1_5" x="182.164" y="271.161" width="18.9" height="18.9" transform="rotate(-68.5884 182.164 271.161)" fill="#F69C9C" stroke="#EE7D81" stroke-width="1.8"/>
<circle id="Ellipse 1_5" cx="194.411" cy="265.814" r="5.4" transform="rotate(-68.5884 194.411 265.814)" fill="#EE7D81"/>
</g>
<g id="ASCII-pattern_6">
<rect id="Rectangle 1_6" x="66.5356" y="225.82" width="18.9" height="18.9" transform="rotate(-68.5884 66.5356 225.82)" fill="#F69C9C" stroke="#EE7D81" stroke-width="1.8"/>
<circle id="Ellipse 1_6" cx="78.7819" cy="220.472" r="5.4" transform="rotate(-68.5884 78.7819 220.472)" fill="#EE7D81"/>
</g>
<g id="ASCII-pattern_7">
<rect id="Rectangle 1_7" x="220.707" y="286.274" width="18.9" height="18.9" transform="rotate(-68.5884 220.707 286.274)" fill="#F69C9C" stroke="#EE7D81" stroke-width="1.8"/>
<circle id="Ellipse 1_7" cx="232.956" cy="280.927" r="5.4" transform="rotate(-68.5884 232.956 280.927)" fill="#EE7D81"/>
</g>
<g id="ASCII-pattern_8">
<rect id="Rectangle 1_8" x="105.079" y="240.933" width="18.9" height="18.9" transform="rotate(-68.5884 105.079 240.933)" fill="#F69C9C" stroke="#EE7D81" stroke-width="1.8"/>
<circle id="Ellipse 1_8" cx="117.327" cy="235.585" r="5.4" transform="rotate(-68.5884 117.327 235.585)" fill="#EE7D81"/>
</g>
<g id="ASCII-pattern_9">
<rect id="Rectangle 1_9" x="232.42" y="313.103" width="18.9" height="18.9" transform="rotate(-68.5884 232.42 313.103)" fill="#F69C9C" stroke="#EE7D81" stroke-width="1.8"/>
<circle id="Ellipse 1_9" cx="244.669" cy="307.755" r="5.4" transform="rotate(-68.5884 244.669 307.755)" fill="#EE7D81"/>
</g>
<g id="ASCII-pattern_10">
<rect id="Rectangle 1_10" x="116.793" y="267.761" width="18.9" height="18.9" transform="rotate(-68.5884 116.793 267.761)" fill="#F69C9C" stroke="#EE7D81" stroke-width="1.8"/>
<circle id="Ellipse 1_10" cx="129.042" cy="262.413" r="5.4" transform="rotate(-68.5884 129.042 262.413)" fill="#EE7D81"/>
</g>
<g id="ASCII-pattern_11">
<rect id="Rectangle 1_11" x="1.16449" y="222.421" width="18.9" height="18.9" transform="rotate(-68.5884 1.16449 222.421)" fill="#F69C9C" stroke="#EE7D81" stroke-width="1.8"/>
<circle id="Ellipse 1_11" cx="13.4108" cy="217.074" r="5.4" transform="rotate(-68.5884 13.4108 217.074)" fill="#EE7D81"/>
</g>
<g id="ASCII-pattern_12">
<rect id="Rectangle 1_12" x="247.536" y="274.56" width="18.9" height="18.9" transform="rotate(-68.5884 247.536 274.56)" fill="#F69C9C" stroke="#EE7D81" stroke-width="1.8"/>
<circle id="Ellipse 1_12" cx="259.782" cy="269.212" r="5.4" transform="rotate(-68.5884 259.782 269.212)" fill="#EE7D81"/>
</g>
<g id="ASCII-pattern_13">
<rect id="Rectangle 1_13" x="131.907" y="229.219" width="18.9" height="18.9" transform="rotate(-68.5884 131.907 229.219)" fill="#F69C9C" stroke="#EE7D81" stroke-width="1.8"/>
<circle id="Ellipse 1_13" cx="144.153" cy="223.872" r="5.4" transform="rotate(-68.5884 144.153 223.872)" fill="#EE7D81"/>
</g>
<g id="ASCII-pattern_14">
<rect id="Rectangle 1_14" x="16.2778" y="183.878" width="18.9" height="18.9" transform="rotate(-68.5884 16.2778 183.878)" fill="#F69C9C" stroke="#EE7D81" stroke-width="1.8"/>
<circle id="Ellipse 1_14" cx="28.526" cy="178.53" r="5.4" transform="rotate(-68.5884 28.526 178.53)" fill="#EE7D81"/>
</g>
<g id="ASCII-pattern_15">
<rect id="Rectangle 1_15" x="270.963" y="328.216" width="18.9" height="18.9" transform="rotate(-68.5884 270.963 328.216)" fill="#F69C9C" stroke="#EE7D81" stroke-width="1.8"/>
<circle id="Ellipse 1_15" cx="283.21" cy="322.869" r="5.4" transform="rotate(-68.5884 283.21 322.869)" fill="#EE7D81"/>
</g>
<g id="ASCII-pattern_16">
<rect id="Rectangle 1_16" x="155.334" y="282.876" width="18.9" height="18.9" transform="rotate(-68.5884 155.334 282.876)" fill="#F69C9C" stroke="#EE7D81" stroke-width="1.8"/>
<circle id="Ellipse 1_16" cx="167.581" cy="277.528" r="5.4" transform="rotate(-68.5884 167.581 277.528)" fill="#EE7D81"/>
</g>
<g id="ASCII-pattern_17">
<rect id="Rectangle 1_17" x="39.7075" y="237.534" width="18.9" height="18.9" transform="rotate(-68.5884 39.7075 237.534)" fill="#F69C9C" stroke="#EE7D81" stroke-width="1.8"/>
<circle id="Ellipse 1_17" cx="51.9557" cy="232.187" r="5.4" transform="rotate(-68.5884 51.9557 232.187)" fill="#EE7D81"/>
</g>
<g id="ASCII-pattern_18">
<rect id="Rectangle 1_18" x="286.079" y="289.674" width="18.9" height="18.9" transform="rotate(-68.5884 286.079 289.674)" fill="#F69C9C" stroke="#EE7D81" stroke-width="1.8"/>
<circle id="Ellipse 1_18" cx="298.325" cy="284.326" r="5.4" transform="rotate(-68.5884 298.325 284.326)" fill="#EE7D81"/>
</g>
<g id="ASCII-pattern_19">
<rect id="Rectangle 1_19" x="170.45" y="244.333" width="18.9" height="18.9" transform="rotate(-68.5884 170.45 244.333)" fill="#F69C9C" stroke="#EE7D81" stroke-width="1.8"/>
<circle id="Ellipse 1_19" cx="182.696" cy="238.985" r="5.4" transform="rotate(-68.5884 182.696 238.985)" fill="#EE7D81"/>
</g>
<g id="ASCII-pattern_20">
<rect id="Rectangle 1_20" x="54.8227" y="198.992" width="18.9" height="18.9" transform="rotate(-68.5884 54.8227 198.992)" fill="#F69C9C" stroke="#EE7D81" stroke-width="1.8"/>
<circle id="Ellipse 1_20" cx="67.069" cy="193.644" r="5.4" transform="rotate(-68.5884 67.069 193.644)" fill="#EE7D81"/>
</g>
<g id="ASCII-pattern_21">
<rect id="Rectangle 1_21" x="193.877" y="297.989" width="18.9" height="18.9" transform="rotate(-68.5884 193.877 297.989)" fill="#F69C9C" stroke="#EE7D81" stroke-width="1.8"/>
<circle id="Ellipse 1_21" cx="206.124" cy="292.642" r="5.4" transform="rotate(-68.5884 206.124 292.642)" fill="#EE7D81"/>
</g>
<g id="ASCII-pattern_22">
<rect id="Rectangle 1_22" x="78.2504" y="252.648" width="18.9" height="18.9" transform="rotate(-68.5884 78.2504 252.648)" fill="#F69C9C" stroke="#EE7D81" stroke-width="1.8"/>
<circle id="Ellipse 1_22" cx="90.4967" cy="247.3" r="5.4" transform="rotate(-68.5884 90.4967 247.3)" fill="#EE7D81"/>
</g>
<g id="ASCII-pattern_23">
<rect id="Rectangle 1_23" x="324.62" y="304.787" width="18.9" height="18.9" transform="rotate(-68.5884 324.62 304.787)" fill="#F69C9C" stroke="#EE7D81" stroke-width="1.8"/>
<circle id="Ellipse 1_23" cx="336.868" cy="299.44" r="5.4" transform="rotate(-68.5884 336.868 299.44)" fill="#EE7D81"/>
</g>
<g id="ASCII-pattern_24">
<rect id="Rectangle 1_24" x="208.993" y="259.446" width="18.9" height="18.9" transform="rotate(-68.5884 208.993 259.446)" fill="#F69C9C" stroke="#EE7D81" stroke-width="1.8"/>
<circle id="Ellipse 1_24" cx="221.241" cy="254.099" r="5.4" transform="rotate(-68.5884 221.241 254.099)" fill="#EE7D81"/>
</g>
<g id="ASCII-pattern_25">
<rect id="Rectangle 1_25" x="93.3657" y="214.105" width="18.9" height="18.9" transform="rotate(-68.5884 93.3657 214.105)" fill="#F69C9C" stroke="#EE7D81" stroke-width="1.8"/>
<circle id="Ellipse 1_25" cx="105.614" cy="208.757" r="5.4" transform="rotate(-68.5884 105.614 208.757)" fill="#EE7D81"/>
</g>
</g>
</g>
</g>
</g>
</g>
</g>
<defs>
<radialGradient id="paint0_radial_0_1" cx="0" cy="0" r="1" gradientTransform="matrix(-326.607 -21.1689 43.5635 -231.05 313.119 353.714)" gradientUnits="userSpaceOnUse">
<stop stop-color="#CBC2C2"/>
<stop offset="1" stop-color="#F6EFEB"/>
</radialGradient>
<clipPath id="clip0_0_1">
<rect y="222.93" width="239.456" height="269.092" rx="18" transform="rotate(-68.5884 0 222.93)" fill="white"/>
</clipPath>
</defs>
</svg>
